<?xml version="1.0" encoding="UTF-8"?>
<svg width="328px" height="66px" viewBox="0 0 328 66" version="1.1" xmlns="http://www.w3.org/2000/svg" xmlns:xlink="http://www.w3.org/1999/xlink">
    <title>logo-projuris-empresas-monocromatica</title>
    <g id="logo-projuris-empresas-monocromatica" stroke="none" stroke-width="1" fill="none" fill-rule="evenodd">
        <g id="ProJuris_Empresas_Horizontal_Monocromático_Branco" fill="#9440FF" fill-rule="nonzero">
            <path d="M32.7476167,65.2051108 L29.5885012,65.2051108 L29.5885012,57.0131695 L32.7476167,57.0131695 C42.5802438,57.0213199 51.4492193,51.1045606 55.2176516,42.0227359 C58.9860839,32.9409112 56.9115548,22.48323 49.9617185,15.5276281 C43.0118822,8.57202628 32.5559249,6.48882576 23.4709784,10.2497256 C14.3860318,14.0106254 8.46191984,22.8746914 8.46191646,32.7073219 L8.46191646,35.955086 L0.253857494,35.955086 L0.253857494,32.7073219 C0.253857494,19.5628266 8.17212567,7.71269877 20.3162117,2.68289473 C32.4602978,-2.34690932 46.4384922,0.434202163 55.7324776,9.72934013 C65.0264631,19.0244781 67.8058412,33.0030172 62.7745314,45.1464795 C57.7432215,57.2899418 45.8921118,65.2067404 32.7476167,65.2051108 L32.7476167,65.2051108 Z" id="Path"></path>
            <path d="M51.0455037,32.7073219 C51.1434713,26.1061265 47.6778827,19.9640122 41.9768487,16.6348096 C36.2758147,13.3056071 29.2234482,13.3056071 23.5224142,16.6348096 C17.8213802,19.9640122 14.3557916,26.1061265 14.4537592,32.7073219 L14.4537592,35.955086 L22.6416708,35.955086 L22.6416708,32.7073219 C22.6416708,27.125962 27.1662569,22.6013759 32.7476167,22.6013759 C38.3289765,22.6013759 42.8535627,27.125962 42.8535627,32.7073219 C42.8535627,38.2886817 38.3289765,42.8132678 32.7476167,42.8132678 L29.5885012,42.8132678 L29.5885012,51.0011794 L32.7476167,51.0011794 C42.8480059,50.9922962 51.034396,42.8077089 51.0455037,32.7073219 Z" id="Path"></path>
            <polygon id="Path" points="22.6416708 42.8132678 0.253857494 42.8132678 0.253857494 51.0011794 14.4537592 51.0011794"></polygon>
            <polygon id="Path" points="22.6416708 65.2051106 14.4537592 65.2051106 14.4537592 51.0011794 22.6416708 42.8132678"></polygon>
            <polygon id="Path" points="175.016609 47.6083538 184.751843 47.6083538 184.751843 48.817199 176.289926 48.817199 176.289926 54.3013268 184.139361 54.3013268 184.139361 55.510172 176.273808 55.510172 176.273808 61.0990663 184.917052 61.0990663 184.917052 62.3079115 175.016609 62.3079115"></polygon>
            <polygon id="Path" points="194.38231 47.6083538 195.450123 47.6083538 201.792531 57.00914 208.134939 47.6083538 209.202752 47.6083538 209.202752 62.2635872 207.945553 62.2635872 207.945553 49.9978378 202.167273 58.540344 201.413759 58.540344 195.635479 49.9978378 195.635479 62.2635872 194.38231 62.2635872"></polygon>
            <path d="M219.542408,47.6083538 L224.357641,47.6083538 C227.690025,47.6083538 230.53484,48.6560197 230.53484,52.2583784 C230.53484,55.8607371 227.690025,56.9245209 224.357641,56.9245209 L220.815725,56.9245209 L220.815725,62.2635872 L219.558526,62.2635872 L219.542408,47.6083538 Z M224.44226,55.7317936 C227.081572,55.7317936 229.277641,55.0226044 229.277641,52.2583784 C229.277641,49.4941523 227.081572,48.8051106 224.44226,48.8051106 L220.815725,48.8051106 L220.815725,55.7317936 L224.44226,55.7317936 Z" id="Shape"></path>
            <path d="M239.577002,47.6083538 L245.21828,47.6083538 C247.752826,47.6083538 250.557346,48.700344 250.557346,51.964226 C250.557346,54.7848649 248.486192,55.9655037 246.330418,56.2354791 L251.568747,62.2797052 L250.001278,62.2797052 L244.891892,56.3563636 L240.834201,56.3563636 L240.834201,62.2797052 L239.577002,62.2797052 L239.577002,47.6083538 Z M245.274693,55.1475184 C247.200786,55.1475184 249.304177,54.4141523 249.304177,51.964226 C249.304177,49.5142998 247.192727,48.8051106 245.274693,48.8051106 L240.84226,48.8051106 L240.84226,55.1475184 L245.274693,55.1475184 Z" id="Shape"></path>
            <polygon id="Path" points="260.304668 47.6083538 270.039902 47.6083538 270.039902 48.817199 261.53769 48.817199 261.53769 54.3013268 269.391155 54.3013268 269.391155 55.510172 261.53769 55.510172 261.53769 61.0990663 270.184963 61.0990663 270.184963 62.3079115 260.304668 62.3079115"></polygon>
            <path d="M278.703292,61.2481572 L278.703292,59.9909582 C280.201462,60.8466222 281.897997,61.2940294 283.623292,61.2884521 C285.803243,61.2884521 287.652776,60.6638821 287.652776,58.7780835 C287.652776,54.4665356 278.755676,56.2233907 278.755676,51.0938575 C278.755676,48.5391646 281.080688,47.3665848 283.591057,47.3665848 C285.097377,47.3486169 286.584987,47.7014919 287.922752,48.3941032 L287.922752,49.6513022 C286.631069,48.9118766 285.163824,48.5346247 283.675676,48.559312 C281.705258,48.559312 280.04914,49.2523833 280.04914,51.0535627 C280.04914,55.13543 288.966388,53.4188698 288.966388,58.7095823 C288.966388,61.4738084 286.476167,62.5214742 283.752236,62.4972973 C281.991133,62.510899 280.254895,62.0813428 278.703292,61.2481572 Z" id="Path"></path>
            <path d="M310.338771,62.2635872 L308.996953,62.2635872 L307.260246,58.3308108 L298.987715,58.3308108 L297.22683,62.2635872 L295.889042,62.2635872 L302.420835,47.6083538 L303.823096,47.6083538 L310.338771,62.2635872 Z M306.76059,57.158231 L303.303292,49.3490909 C303.24285,49.1798526 303.178378,49.0347912 303.113907,48.8454054 C303.033317,49.0347912 302.988993,49.1798526 302.904373,49.3490909 L299.471253,57.158231 L306.76059,57.158231 Z" id="Shape"></path>
            <path d="M317.708698,61.2481572 L317.708698,59.9909582 C319.206507,60.8475037 320.903282,61.2949742 322.628698,61.2884521 C324.804619,61.2884521 326.658182,60.6638821 326.658182,58.7780835 C326.658182,54.4665356 317.761081,56.2233907 317.761081,51.0938575 C317.761081,48.5391646 320.086093,47.3665848 322.596462,47.3665848 C324.102782,47.3486169 325.590393,47.7014919 326.928157,48.3941032 L326.928157,49.6513022 C325.636475,48.9118766 324.169229,48.5346247 322.681081,48.559312 C320.710663,48.559312 319.054545,49.2523833 319.054545,51.0535627 C319.054545,55.13543 327.971794,53.4188698 327.971794,58.7095823 C327.971794,61.4738084 325.481572,62.5214742 322.757641,62.4972973 C320.996416,62.511939 319.259924,62.0823199 317.708698,61.2481572 Z" id="Path"></path>
            <path d="M82.4069779,3.59027027 L95.6841278,3.59027027 C104.186339,3.59027027 110.875283,6.30614251 110.875283,15.4087469 C110.875283,24.5113514 104.186339,27.2312531 95.6841278,27.2312531 L89.950172,27.2312531 L89.950172,38.7958722 L82.4069779,38.7958722 L82.4069779,3.59027027 Z M96.0346929,20.5906634 C99.8586732,20.5906634 103.126585,19.5349386 103.126585,15.4087469 C103.126585,11.2825553 99.8586732,10.2268305 96.0346929,10.2268305 L89.950172,10.2268305 L89.950172,20.5906634 L96.0346929,20.5906634 Z M115.900049,3.59027027 L130.386044,3.59027027 C137.236167,3.59027027 144.372383,6.15302211 144.372383,15.0581818 C144.372383,21.1024079 140.951351,24.1607862 136.716364,25.5348403 L147.193022,38.8321376 L138.489337,38.8321376 L128.979754,26.4737101 L123.447273,26.4737101 L123.447273,38.7958722 L115.900049,38.7958722 L115.900049,3.59027027 Z M130.688256,20.187715 C133.911843,20.187715 136.623686,18.7773956 136.623686,15.2072727 C136.623686,11.6371499 133.907813,10.2268305 130.688256,10.2268305 L123.435184,10.2268305 L123.435184,20.187715 L130.688256,20.187715 Z M148.893464,21.195086 C148.893464,11.6371499 155.082752,2.88511057 167.606388,2.88511057 C180.130025,2.88511057 186.315283,11.6371499 186.315283,21.195086 C186.315283,30.7530221 180.081671,39.4889435 167.626536,39.4889435 C155.1714,39.4889435 148.893464,30.7489926 148.893464,21.195086 Z M178.570614,21.195086 C178.570614,15.0057985 174.847371,9.87626536 167.606388,9.87626536 C160.365405,9.87626536 156.642162,15.0057985 156.642162,21.195086 C156.642162,27.3843735 160.313022,32.5098771 167.606388,32.5098771 C174.899754,32.5098771 178.570614,27.4004914 178.570614,21.195086 L178.570614,21.195086 Z M188.930418,37.1357248 L188.930418,32.9128256 C191.142604,34.4722359 194.108305,35.2781327 197.227125,35.2781327 C201.857002,35.2781327 205.326388,33.7670762 205.326388,28.6858968 L205.326388,7.61169533 L194.966585,7.61169533 L194.966585,3.5822113 L209.553317,3.5822113 L209.553317,28.8390172 C209.553317,36.2331204 204.419754,39.3156757 197.980639,39.3156757 C194.462899,39.2995577 191.194988,38.5460442 188.930418,37.1357248 L188.930418,37.1357248 Z M218.099853,25.9216708 L218.099853,3.59027027 L222.326781,3.59027027 L222.326781,25.7201966 C222.326781,32.8644717 226.759214,35.3909582 232.835676,35.3909582 C238.912138,35.3909582 243.312334,32.8765602 243.312334,25.7201966 L243.312334,3.59027027 L247.535233,3.59027027 L247.535233,25.9216708 C247.535233,35.9953808 240.644816,39.4002948 232.847764,39.4002948 C225.050713,39.4002948 218.099853,35.9792629 218.099853,25.9216708 Z M256.379951,3.59027027 L270.160786,3.59027027 C276.499165,3.59027027 283.337199,6.20540541 283.337199,14.252285 C283.337199,20.7397543 278.904767,23.6571007 273.932383,24.5637346 L285.851597,38.7958722 L280.572973,38.7958722 L269.048649,24.9142998 L260.586732,24.9142998 L260.586732,38.7958722 L256.375921,38.7958722 L256.379951,3.59027027 Z M270.378378,20.8928747 C274.601278,20.8928747 279.078034,19.4825553 279.078034,14.252285 C279.078034,9.02201474 274.58113,7.61169533 270.378378,7.61169533 L260.598821,7.61169533 L260.598821,20.9089926 L270.378378,20.8928747 Z M291.331695,3.59027027 L295.554595,3.59027027 L295.554595,38.7958722 L291.331695,38.7958722 L291.331695,3.59027027 Z M302.847961,36.3822113 L302.847961,32.159312 C306.396702,34.3040361 310.471758,35.4201075 314.618084,35.3828993 C319.493759,35.3828993 323.672334,34.1257002 323.672334,30.14457 C323.672334,20.6914005 302.69484,24.6644717 302.69484,12.2899263 C302.69484,6.0039312 308.380442,2.98584767 314.783292,2.98584767 C318.655627,2.98584767 322.628698,3.94083538 325.445307,5.55262899 L325.445307,9.77552826 C322.624668,7.96628993 318.70801,6.95488943 315.085504,7.01130221 C310.459656,7.01130221 306.986241,8.36923833 306.986241,12.1408354 C306.986241,21.0419656 327.959705,17.2179853 327.959705,29.8463882 C327.959705,36.837543 321.67371,39.4526781 314.932383,39.4002948 C310.711566,39.4515859 306.549031,38.4119932 302.847961,36.3822113 L302.847961,36.3822113 Z" id="Shape"></path>
        </g>
    </g>
</svg>